<?xml version="1.0" standalone="no"?>
<!DOCTYPE svg PUBLIC "-//W3C//DTD SVG 20010904//EN"
 "http://www.w3.org/TR/2001/REC-SVG-20010904/DTD/svg10.dtd">
<svg version="1.0" xmlns="http://www.w3.org/2000/svg"
 width="200.000000pt" height="200.000000pt" viewBox="0 0 200.000000 200.000000"
 preserveAspectRatio="xMidYMid meet">
<metadata>
Created by potrace 1.16, written by Peter Selinger 2001-2019
</metadata>
<g transform="translate(0.000000,200.000000) scale(0.037037,-0.037037)"
fill="#000000" stroke="none">
<path d="M3115 3960 l-1090 -1090 333 0 c184 0 332 -4 330 -8 -1 -5 -187 -230
-413 -500 -225 -271 -411 -497 -413 -502 -2 -6 84 -10 242 -10 135 0 246 -2
246 -5 0 -3 -225 -344 -501 -758 l-501 -752 1011 1010 c556 555 1011 1013
1011 1017 0 4 -110 9 -244 10 l-244 3 414 495 c227 272 413 498 414 503 0 4
-148 7 -330 7 -181 0 -330 2 -330 4 0 3 258 373 573 824 597 851 590 842 585
842 -2 0 -494 -490 -1093 -1090z"/>
<path d="M2506 4549 c-629 -66 -1185 -454 -1471 -1027 -363 -725 -203 -1607
393 -2173 58 -54 111 -99 117 -99 13 0 174 240 182 269 2 10 -28 47 -78 95
-240 233 -385 509 -444 841 -21 120 -22 370 0 490 79 453 332 822 724 1059
235 142 484 207 792 207 l175 0 139 139 c77 77 137 142 134 145 -10 9 -192 44
-291 54 -110 12 -256 12 -372 0z"/>
<path d="M3836 3933 l-95 -136 73 -77 c39 -43 99 -117 133 -166 484 -709 293
-1658 -430 -2128 -214 -140 -449 -217 -721 -236 l-130 -10 -148 -147 c-81 -81
-148 -151 -148 -154 0 -10 45 -17 197 -31 318 -27 662 40 957 188 592 297 974
863 1029 1525 42 517 -148 1039 -519 1427 -44 45 -84 82 -91 82 -6 0 -54 -61
-107 -137z"/>
</g>
</svg>
